<svg xmlns="http://www.w3.org/2000/svg" aria-hidden="true" viewBox="0 0 448 512">
  <path fill="currentColor" d="M0 84V56c0-13 11-24 24-24h112l9-19c4-8 13-13 22-13h114c9 0 18 5 22 13l9 19h112c13 0 24 11 24 24v28c0 7-5 12-12 12H12C5 96 0 91 0 84zm416 56v324c0 27-21 48-48 48H80c-26 0-48-21-48-48V140c0-7 5-12 12-12h360c7 0 12 5 12 12zm-272 68c0-9-7-16-16-16s-16 7-16 16v224c0 9 7 16 16 16s16-7 16-16V208zm96 0c0-9-7-16-16-16s-16 7-16 16v224c0 9 7 16 16 16s16-7 16-16V208zm96 0c0-9-7-16-16-16s-16 7-16 16v224c0 9 7 16 16 16s16-7 16-16V208z"/>
</svg>
